<?xml version="1.0" encoding="UTF-8" standalone="no"?>
<!-- Created with Inkscape (http://www.inkscape.org/) -->

<svg
   xmlns:dc="http://purl.org/dc/elements/1.1/"
   xmlns:cc="http://creativecommons.org/ns#"
   xmlns:rdf="http://www.w3.org/1999/02/22-rdf-syntax-ns#"
   xmlns:svg="http://www.w3.org/2000/svg"
   xmlns="http://www.w3.org/2000/svg"
   xmlns:xlink="http://www.w3.org/1999/xlink"
   xmlns:sodipodi="http://sodipodi.sourceforge.net/DTD/sodipodi-0.dtd"
   xmlns:inkscape="http://www.inkscape.org/namespaces/inkscape"
   width="60.000004"
   height="125.00002"
   viewBox="0 0 15.875 33.072923"
   version="1.1"
   id="svg8"
   inkscape:version="0.92.1 r15371"
   sodipodi:docname="3400 uF capacitor.svg">
  <defs
     id="defs2">
    <linearGradient
       inkscape:collect="always"
       id="linearGradient37">
      <stop
         style="stop-color:#cccccc;stop-opacity:1;"
         offset="0"
         id="stop33" />
      <stop
         id="stop41"
         offset="0.39710009"
         style="stop-color:#f9f9f9;stop-opacity:1" />
      <stop
         style="stop-color:#e6e6e6;stop-opacity:1"
         offset="1"
         id="stop35" />
    </linearGradient>
    <linearGradient
       inkscape:collect="always"
       id="linearGradient25">
      <stop
         style="stop-color:#1a1a1a;stop-opacity:1"
         offset="0"
         id="stop21" />
      <stop
         id="stop29"
         offset="0.25000015"
         style="stop-color:#4d4d4d;stop-opacity:1" />
      <stop
         style="stop-color:#4d4d4d;stop-opacity:1"
         offset="1"
         id="stop23" />
    </linearGradient>
    <linearGradient
       inkscape:collect="always"
       id="linearGradient51">
      <stop
         style="stop-color:#666666;stop-opacity:1"
         offset="0"
         id="stop47" />
      <stop
         id="stop55"
         offset="0.39999962"
         style="stop-color:#cccccc;stop-opacity:1" />
      <stop
         style="stop-color:#4d4d4d;stop-opacity:1"
         offset="1"
         id="stop49" />
    </linearGradient>
    <linearGradient
       inkscape:collect="always"
       xlink:href="#linearGradient51"
       id="linearGradient53"
       x1="59.53125"
       y1="115.7604"
       x2="60.854168"
       y2="115.7604"
       gradientUnits="userSpaceOnUse" />
    <linearGradient
       inkscape:collect="always"
       xlink:href="#linearGradient51"
       id="linearGradient57"
       x1="66.145836"
       y1="115.76042"
       x2="67.46875"
       y2="115.76042"
       gradientUnits="userSpaceOnUse" />
    <linearGradient
       inkscape:collect="always"
       xlink:href="#linearGradient25"
       id="linearGradient27"
       x1="58.208332"
       y1="102.53125"
       x2="68.791664"
       y2="102.53125"
       gradientUnits="userSpaceOnUse" />
    <linearGradient
       inkscape:collect="always"
       xlink:href="#linearGradient37"
       id="linearGradient39"
       x1="61.383335"
       y1="93.006248"
       x2="66.410416"
       y2="95.916664"
       gradientUnits="userSpaceOnUse" />
  </defs>
  <sodipodi:namedview
     id="base"
     pagecolor="#ffffff"
     bordercolor="#666666"
     borderopacity="1.0"
     inkscape:pageopacity="0.0"
     inkscape:pageshadow="2"
     inkscape:zoom="4"
     inkscape:cx="31.039887"
     inkscape:cy="60.319936"
     inkscape:document-units="mm"
     inkscape:current-layer="layer1"
     showgrid="true"
     inkscape:object-paths="true"
     inkscape:snap-intersection-paths="true"
     inkscape:snap-smooth-nodes="true"
     inkscape:window-width="1440"
     inkscape:window-height="837"
     inkscape:window-x="-8"
     inkscape:window-y="-8"
     inkscape:window-maximized="1"
     fit-margin-top="10"
     fit-margin-left="10"
     fit-margin-right="10"
     fit-margin-bottom="10"
     units="px">
    <inkscape:grid
       type="xygrid"
       id="grid10"
       originx="-55.562492"
       originy="-174.625" />
  </sodipodi:namedview>
  <metadata
     id="metadata5">
    <rdf:RDF>
      <cc:Work
         rdf:about="">
        <dc:format>image/svg+xml</dc:format>
        <dc:type
           rdf:resource="http://purl.org/dc/dcmitype/StillImage" />
        <dc:title></dc:title>
      </cc:Work>
    </rdf:RDF>
  </metadata>
  <g
     inkscape:label="Layer 1"
     inkscape:groupmode="layer"
     id="layer1"
     transform="translate(-55.5625,-89.302082)">
    <rect
       style="opacity:1;fill:url(#linearGradient53);fill-opacity:1;stroke:none;stroke-width:0.12247442"
       id="rect43"
       width="1.3229166"
       height="7.9374909"
       x="59.53125"
       y="111.79166"
       ry="0" />
    <rect
       ry="0"
       y="111.79168"
       x="66.145836"
       height="7.9374909"
       width="1.3229166"
       id="rect45"
       style="opacity:1;fill:url(#linearGradient57);stroke:none;stroke-width:0.12247442" />
    <ellipse
       style="opacity:1;fill:#999999;stroke:none;stroke-width:0.08944272"
       id="path14"
       cx="63.5"
       cy="94.59375"
       rx="5.2916665"
       ry="2.6458352" />
    <ellipse
       ry="2.6458352"
       rx="5.2916665"
       cy="94.59375"
       cx="63.5"
       id="ellipse28"
       style="opacity:1;fill:#1a1a1a;fill-opacity:1;stroke:none;stroke-width:0.08944272" />
    <path
       id="path36"
       style="opacity:1;fill:url(#linearGradient27);fill-opacity:1;stroke:none;stroke-width:0.08944272"
       d="m 63.5,97.239585 c -2.922507,0 -5.291667,-1.184581 -5.291667,-2.645835 v 15.875 c -5e-6,1.46126 2.369156,2.64584 5.291667,2.64584 2.922511,0 5.291672,-1.18458 5.291667,-2.64584 v -15.875 c 0,1.461254 -2.36916,2.645835 -5.291667,2.645835 z"
       inkscape:connector-curvature="0"
       sodipodi:nodetypes="sccsccs" />
    <path
       id="path3821"
       style="font-style:normal;font-variant:normal;font-weight:normal;font-stretch:normal;font-size:medium;line-height:1.25;font-family:Code2000;-inkscape-font-specification:Code2000;letter-spacing:0px;word-spacing:0px;fill:#ffffff;fill-opacity:1;stroke:none;stroke-width:0.06050367"
       d="m 65.510943,101.71175 h -0.06145 l -0.06618,-0.19853 H 64.55612 l -0.06145,0.19853 h -0.05909 v -0.33797 l 0.08745,-0.0874 h 0.06381 q -0.052,-0.0875 -0.102809,-0.21862 -0.05081,-0.13235 -0.05081,-0.26825 0,-0.0662 0.02127,-0.12171 0.02009,-0.0567 0.05436,-0.078 0.03309,-0.0225 0.06618,-0.0225 0.052,0 0.08981,0.0236 0.03781,0.0236 0.05909,0.0733 0.02127,0.0496 0.02127,0.11345 0,0.0449 -0.02482,0.0863 -0.02482,0.0402 -0.06027,0.0615 -0.03663,0.0201 -0.09217,0.0343 0,0.0685 0.03663,0.14771 0.03663,0.0792 0.0969,0.16899 h 0.681848 l 0.06618,-0.19853 h 0.06145 z m 0,0.72793 q 0,0.15126 -0.06381,0.28125 -0.06381,0.12999 -0.193801,0.1938 -0.129988,0.0638 -0.281247,0.0638 -0.15126,0 -0.281248,-0.0638 -0.129988,-0.0638 -0.193801,-0.1938 -0.06381,-0.12999 -0.06381,-0.28125 0,-0.15126 0.06381,-0.28125 0.06381,-0.12999 0.193801,-0.1938 0.129988,-0.0638 0.281248,-0.0638 0.151259,0 0.281247,0.0638 0.129988,0.0638 0.193801,0.1938 0.06381,0.12999 0.06381,0.28125 z m -0.122898,0 q 0,-0.0922 -0.04963,-0.16662 -0.04963,-0.0744 -0.146532,-0.1099 -0.0969,-0.0355 -0.219798,-0.0355 -0.122899,0 -0.219799,0.0355 -0.0969,0.0354 -0.146532,0.1099 -0.04963,0.0744 -0.04963,0.16662 0,0.0922 0.04963,0.16662 0.04963,0.0744 0.146532,0.1099 0.0969,0.0354 0.219799,0.0354 0.122898,0 0.219798,-0.0354 0.0969,-0.0354 0.146532,-0.1099 0.04963,-0.0744 0.04963,-0.16662 z m 0.122898,0.995 q 0,0.21035 -0.08272,0.2907 -0.08272,0.0804 -0.224526,0.0804 H 64.55612 v 0.33088 h -0.120535 v -0.33088 h -0.274157 l -0.07563,0.0756 h -0.06145 v -0.2198 l 0.04254,-0.0827 h 0.368694 v -0.41123 h 0.120535 v 0.41123 h 0.647578 q 0.08036,0 0.132352,-0.0354 0.052,-0.0355 0.052,-0.10872 0,-0.0567 -0.03781,-0.10872 -0.03781,-0.052 -0.09217,-0.0898 -0.01063,-0.005 -0.01536,-0.0118 -0.0059,-0.007 -0.0059,-0.0154 0,-0.013 0.013,-0.0307 0.01891,-0.0165 0.04372,-0.0165 0.01182,0.001 0.03309,0.006 0.08981,0.0402 0.137079,0.11108 0.04727,0.0709 0.04727,0.15598 z m 0,1.51496 h -0.06145 l -0.06145,-0.19853 h -0.815381 l -0.07563,0.0756 h -0.06145 v -0.2198 l 0.04254,-0.0827 h 0.909918 l 0.06145,-0.19853 h 0.06145 z m -1.247888,-0.31197 q 0,0.052 -0.03309,0.0851 -0.03309,0.0331 -0.08508,0.0331 -0.052,0 -0.08508,-0.0331 -0.03309,-0.0331 -0.03309,-0.0851 0,-0.052 0.03309,-0.0851 0.03309,-0.0331 0.08508,-0.0331 0.05199,0 0.08508,0.0331 0.03309,0.0331 0.03309,0.0851 z m 1.247888,0.94537 q 0,0.15125 -0.06381,0.28124 -0.06381,0.12999 -0.193801,0.1938 -0.129988,0.0638 -0.281247,0.0638 -0.15126,0 -0.281248,-0.0638 -0.129988,-0.0638 -0.193801,-0.1938 -0.06381,-0.12999 -0.06381,-0.28124 0,-0.22217 0.106354,-0.32379 0.106354,-0.10163 0.229252,-0.10163 0.0449,0 0.07563,0.0177 0.03072,0.0177 0.04845,0.0484 0.01773,0.0307 0.01773,0.0756 0,0.0449 -0.01773,0.0756 -0.01773,0.0307 -0.04845,0.0485 -0.03073,0.0177 -0.07563,0.0177 -0.05436,0 -0.08863,-0.026 -0.03427,-0.026 -0.0449,-0.0614 -0.04254,0.0307 -0.06027,0.0969 -0.01891,0.0662 -0.01891,0.13236 0,0.0922 0.04963,0.16662 0.04963,0.0744 0.146532,0.1099 0.0969,0.0354 0.219799,0.0354 0.122898,0 0.219798,-0.0354 0.0969,-0.0355 0.146532,-0.1099 0.04963,-0.0744 0.04963,-0.16662 0,-0.0756 -0.02127,-0.1489 -0.02127,-0.0744 -0.07799,-0.13944 l -0.09454,-0.0945 0.06618,-0.0662 0.09454,0.0945 q 0.0449,0.0425 0.08272,0.10281 0.03782,0.0591 0.05554,0.12526 0.01772,0.065 0.01772,0.12645 z m 0,1.24552 q -0.0024,0.19853 -0.100445,0.28716 -0.09808,0.0886 -0.232797,0.0934 -0.170167,-0.005 -0.254069,-0.10399 -0.0839,-0.0993 -0.08863,-0.24107 0.0071,-0.18198 0.108717,-0.25761 h -0.120534 q -0.134715,0.005 -0.198528,0.052 -0.06381,0.0473 -0.06854,0.15363 0.0024,0.0756 0.04254,0.13471 0.04018,0.0591 0.127625,0.0756 v 0.1678 q -0.120534,-0.0284 -0.205618,-0.13353 -0.08508,-0.10517 -0.08745,-0.24461 0.0047,-0.18908 0.08863,-0.30489 0.0839,-0.1158 0.301337,-0.12762 h 0.557768 l 0.06854,-0.0685 h 0.06145 v 0.18907 l -0.05436,0.10636 q 0.05199,0.0638 0.05436,0.22216 z m -0.122898,0 q -0.0047,-0.0969 -0.03545,-0.15717 -0.03072,-0.0603 -0.103991,-0.065 h -0.13117 q -0.06972,0.0118 -0.112262,0.0745 -0.04254,0.0626 -0.04727,0.18316 0.0047,0.0733 0.06145,0.12408 0.05672,0.0508 0.155986,0.0555 0.08981,-0.005 0.148896,-0.0579 0.05908,-0.0532 0.06381,-0.15717 z m 0.699574,1.81747 h -0.06145 l -0.06618,-0.19852 H 64.55612 l -0.06145,0.19852 h -0.05909 v -0.35215 l 0.144169,-0.0733 q -0.07799,-0.0614 -0.112263,-0.13944 -0.03427,-0.078 -0.03427,-0.19144 0,-0.17017 0.08508,-0.28716 0.08508,-0.11699 0.212708,-0.16071 0.127625,-0.0437 0.24107,-0.0437 0.113444,0 0.241069,0.0437 0.127625,0.0437 0.212708,0.16071 0.08508,0.11699 0.08508,0.28716 0,0.12762 -0.03309,0.21034 -0.03309,0.0827 -0.08981,0.12054 h 0.571949 l 0.06618,-0.19853 h 0.06145 z m -0.699574,-0.75629 q 0,-0.0898 -0.06027,-0.15244 -0.06027,-0.0626 -0.158349,-0.0875 -0.09808,-0.0248 -0.197346,-0.0248 -0.09926,0 -0.197346,0.0248 -0.09808,0.0248 -0.15835,0.0875 -0.06027,0.0626 -0.06027,0.15244 0,0.11581 0.05199,0.20798 0.052,0.0922 0.141806,0.1229 h 0.467958 q 0.08508,-0.0425 0.127625,-0.13235 0.04254,-0.0898 0.04254,-0.19853 z m 0.122898,1.46296 q -0.0024,0.19853 -0.100445,0.28715 -0.09808,0.0886 -0.232797,0.0934 -0.170167,-0.005 -0.254069,-0.10399 -0.0839,-0.0993 -0.08863,-0.24107 0.0071,-0.18198 0.108717,-0.25761 h -0.120534 q -0.134715,0.005 -0.198528,0.052 -0.06381,0.0473 -0.06854,0.15362 0.0024,0.0756 0.04254,0.13472 0.04018,0.0591 0.127625,0.0756 v 0.1678 q -0.120534,-0.0284 -0.205618,-0.13353 -0.08508,-0.10517 -0.08745,-0.24462 0.0047,-0.18907 0.08863,-0.30488 0.0839,-0.11581 0.301337,-0.12762 h 0.557768 l 0.06854,-0.0685 h 0.06145 v 0.18907 l -0.05436,0.10636 q 0.05199,0.0638 0.05436,0.22216 z m -0.122898,0 q -0.0047,-0.0969 -0.03545,-0.15717 -0.03072,-0.0603 -0.103991,-0.065 h -0.13117 q -0.06972,0.0118 -0.112262,0.0744 -0.04254,0.0626 -0.04727,0.18317 0.0047,0.0733 0.06145,0.12408 0.05672,0.0508 0.155986,0.0555 0.08981,-0.005 0.148896,-0.0579 0.05908,-0.0532 0.06381,-0.15717 z m 0.122898,1.20771 q 0,0.35924 -0.215071,0.55304 -0.215072,0.1938 -0.612127,0.1938 -0.401782,0 -0.614491,-0.1938 -0.212708,-0.1938 -0.212708,-0.55304 0,-0.12763 0.03072,-0.22689 0.03072,-0.0993 0.09217,-0.16544 l -0.103991,-0.10399 0.24107,-0.0804 H 64.3765 v 0.0804 q -0.222162,0.0662 -0.309609,0.19144 -0.08745,0.12526 -0.08745,0.30488 0,0.16544 0.08272,0.28361 0.08272,0.11817 0.245796,0.17726 0.163077,0.0591 0.375785,0.0591 0.212708,0 0.375784,-0.0591 0.163077,-0.0591 0.245796,-0.17726 0.08272,-0.11817 0.08272,-0.28361 0,-0.1938 -0.07563,-0.33088 -0.07563,-0.13708 -0.264704,-0.23162 l 0.07563,-0.0756 q 0.189074,0.0756 0.288338,0.23162 0.09926,0.15598 0.09926,0.40651 z m -3.025183,-12.107828 -1.5315,0.6074 -0.06145,0.170167 H 60.83136 V 98.6582 l 0.122898,0.170167 1.162805,-0.387602 -1.162805,-0.387601 -0.122898,0.170166 v -0.571949 h 0.06145 l 0.06145,0.170167 1.5315,0.6074 z m 0,1.522046 q 0,0.196162 -0.08863,0.313152 -0.08863,0.11699 -0.226888,0.16781 -0.138261,0.0508 -0.346242,0.0508 -0.259977,0 -0.485684,-0.0626 -0.225707,-0.0626 -0.366331,-0.20089 -0.140624,-0.13826 -0.140624,-0.327338 0,-0.148895 0.05318,-0.23516 0.05318,-0.08626 0.145351,-0.12408 l 0.141806,0.0709 v 0.03309 q -0.101628,0.01182 -0.159532,0.07445 -0.0579,0.06263 -0.0579,0.180802 0,0.129986 0.131171,0.210346 0.13117,0.0803 0.327334,0.11699 0.196164,0.0366 0.411236,0.0366 -0.153623,-0.0378 -0.228071,-0.14417 -0.07445,-0.10635 -0.07445,-0.219796 0,-0.160712 0.06263,-0.270612 0.06263,-0.109899 0.167803,-0.155986 0.105173,-0.04609 0.223344,-0.04609 0.160713,0 0.275339,0.06145 0.114626,0.06145 0.174893,0.184347 0.06027,0.122898 0.06027,0.285974 z m -0.122898,0 q 0,-0.111081 -0.05672,-0.180802 -0.05672,-0.06972 -0.146532,-0.0969 -0.08981,-0.02718 -0.184347,-0.02718 -0.08272,0 -0.161895,0.02482 -0.07917,0.02482 -0.124079,0.07917 -0.0449,0.05436 -0.0449,0.141805 0,0.08036 0.06381,0.161899 0.06381,0.0815 0.180802,0.12053 0.11699,0.039 0.22098,0.0461 0.115808,-0.0284 0.184347,-0.10045 0.06854,-0.0721 0.06854,-0.168983 z m 0.122898,1.611852 h -0.06145 l -0.06145,-0.19852 h -1.106083 l 0.09926,0.19852 h -0.06145 l -0.463232,-0.3096 v -0.11581 h 1.5315 l 0.06145,-0.19853 h 0.06145 z m 0,2.60686 h -0.06145 l -0.06145,-0.19853 h -1.4086 l -0.06145,0.19853 h -0.06145 v -1.22898 h 0.359241 v 0.0615 l -0.236343,0.11817 v 0.62395 h 0.642852 v -0.49632 l -0.198528,-0.0662 v -0.0615 h 0.519954 v 0.0615 l -0.198528,0.0662 v 0.49632 h 0.642852 l 0.06145,-0.19853 h 0.06145 z m 0.709027,1.91438 -1.786749,-0.59559 v -0.18907 l 0.652305,0.21743 q 0.297792,-0.0165 0.302519,-0.2647 -0.0071,-0.15126 -0.132352,-0.21271 l -0.822472,-0.27416 v -0.18907 l 0.77284,0.25761 q 0.177257,-0.007 0.181984,-0.20089 -0.0024,-0.12762 -0.189074,-0.17962 l 0.09454,-0.0945 q 0.207981,0.0591 0.217435,0.2907 -0.0024,0.20798 -0.153623,0.24579 0.07799,0.0425 0.113445,0.12999 0.03545,0.0874 0.04018,0.2458 -0.0071,0.15126 -0.05554,0.22334 -0.04845,0.0721 -0.142987,0.0981 l 0.907555,0.30252 z m -0.709027,0.74211 q 0,0.17962 -0.102809,0.31788 -0.102809,0.13826 -0.302519,0.20326 -0.199709,0.065 -0.421871,0.065 -0.222162,0 -0.421871,-0.065 -0.19971,-0.065 -0.302519,-0.20562 -0.102809,-0.14063 -0.102809,-0.31552 0,-0.17489 0.102809,-0.31552 0.102809,-0.14062 0.302519,-0.20561 0.199709,-0.065 0.421871,-0.065 0.222162,0 0.421871,0.065 0.19971,0.065 0.302519,0.20561 0.102809,0.14063 0.102809,0.31552 z m -0.122898,0 q 0,-0.13471 -0.09808,-0.2198 -0.09808,-0.0851 -0.270613,-0.11226 -0.17253,-0.0272 -0.335606,-0.0272 -0.163076,0 -0.335606,0.0272 -0.17253,0.0272 -0.270612,0.11226 -0.09808,0.0851 -0.09808,0.2198 0,0.13472 0.09808,0.2198 0.09808,0.0851 0.270612,0.11226 0.17253,0.0272 0.335606,0.0272 0.163076,0 0.335606,-0.0272 0.17253,-0.0272 0.270613,-0.11226 0.09808,-0.0851 0.09808,-0.2198 z m 0.122898,1.29988 q 0,0.17962 -0.102809,0.31788 -0.102809,0.13827 -0.302519,0.20326 -0.199709,0.065 -0.421871,0.065 -0.222162,0 -0.421871,-0.065 -0.19971,-0.065 -0.302519,-0.20562 -0.102809,-0.14062 -0.102809,-0.31552 0,-0.17489 0.102809,-0.31551 0.102809,-0.14063 0.302519,-0.20562 0.199709,-0.065 0.421871,-0.065 0.222162,0 0.421871,0.065 0.19971,0.065 0.302519,0.20562 0.102809,0.14062 0.102809,0.31551 z m -0.122898,0 q 0,-0.13471 -0.09808,-0.21979 -0.09808,-0.0851 -0.270613,-0.11227 -0.17253,-0.0272 -0.335606,-0.0272 -0.163076,0 -0.335606,0.0272 -0.17253,0.0272 -0.270612,0.11227 -0.09808,0.0851 -0.09808,0.21979 0,0.13472 0.09808,0.2198 0.09808,0.0851 0.270612,0.11227 0.17253,0.0272 0.335606,0.0272 0.163076,0 0.335606,-0.0272 0.17253,-0.0272 0.270613,-0.11227 0.09808,-0.0851 0.09808,-0.2198 z m 0.122898,1.4606 h -0.06145 l -0.06145,-0.19853 h -0.5105 v 0.58141 l -1.021,-0.78466 v -0.0236 h 0.898102 v -0.12289 l -0.09926,-0.052 v -0.0615 h 0.222162 v 0.23634 h 0.5105 l 0.06145,-0.19852 h 0.06145 z m -0.756296,0.12763 v -0.32616 h -0.423053 z m 0.756296,1.03045 q 0,0.19616 -0.118172,0.3486 -0.118171,0.15245 -0.406509,0.18317 v -0.11108 q 0.226889,-0.0284 0.314336,-0.1489 0.08745,-0.12053 0.08745,-0.27179 0,-0.10399 -0.04018,-0.18198 -0.04018,-0.078 -0.120534,-0.11818 -0.08036,-0.0402 -0.179621,-0.0402 -0.160712,0 -0.255249,0.0922 -0.09454,0.0922 -0.113445,0.3167 h -0.122898 q -0.03072,-0.20326 -0.109899,-0.27298 -0.07917,-0.0697 -0.192619,-0.0697 -0.09217,0 -0.153623,0.0272 -0.06145,0.0272 -0.09099,0.0969 -0.02954,0.0697 -0.02954,0.15008 -0.0024,0.0945 0.06854,0.1938 0.0709,0.0993 0.196164,0.16426 l -0.05199,0.0815 q -0.174894,-0.0756 -0.25525,-0.19853 -0.08036,-0.1229 -0.08036,-0.24107 0,-0.13708 0.04372,-0.25171 0.04372,-0.11462 0.134715,-0.18198 0.09099,-0.0674 0.218617,-0.0674 0.113444,0 0.211526,0.0674 0.09808,0.0674 0.142987,0.21625 0.04491,-0.1678 0.159532,-0.25879 0.114626,-0.091 0.280065,-0.091 0.160713,0 0.270613,0.0851 0.109899,0.0851 0.151259,0.20798 0.04136,0.1229 0.04136,0.27416 z" />
    <ellipse
       style="opacity:1;fill:url(#linearGradient39);fill-opacity:1;stroke:none;stroke-width:0.06480739"
       id="ellipse31"
       cx="63.5"
       cy="94.59375"
       rx="3.96875"
       ry="1.8520833" />
    <path
       style="color:#000000;font-style:normal;font-variant:normal;font-weight:normal;font-stretch:normal;font-size:medium;line-height:normal;font-family:sans-serif;font-variant-ligatures:normal;font-variant-position:normal;font-variant-caps:normal;font-variant-numeric:normal;font-variant-alternates:normal;font-feature-settings:normal;text-indent:0;text-align:start;text-decoration:none;text-decoration-line:none;text-decoration-style:solid;text-decoration-color:#000000;letter-spacing:normal;word-spacing:normal;text-transform:none;writing-mode:lr-tb;direction:ltr;text-orientation:mixed;dominant-baseline:auto;baseline-shift:baseline;text-anchor:start;white-space:normal;shape-padding:0;clip-rule:nonzero;display:inline;overflow:visible;visibility:visible;opacity:1;isolation:auto;mix-blend-mode:normal;color-interpolation:sRGB;color-interpolation-filters:linearRGB;solid-color:#000000;solid-opacity:1;vector-effect:none;fill:#4d4d4d;fill-opacity:1;fill-rule:nonzero;stroke:none;stroke-width:1.30465949px;stroke-linecap:butt;stroke-linejoin:miter;stroke-miterlimit:4;stroke-dasharray:none;stroke-dashoffset:0;stroke-opacity:1;color-rendering:auto;image-rendering:auto;shape-rendering:auto;text-rendering:auto;enable-background:accumulate"
       d="m 240,350.51953 a 15,7 0 0 0 -0.6543,0.0117 v 5.63281 l -12.09179,5.03711 a 15,7 0 0 0 1.34375,0.85352 l 11.41211,-4.7461 11.40429,4.75 a 15,7 0 0 0 1.32617,-0.85937 l -12.08593,-5.03516 v -5.6289 A 15,7 0 0 0 240,350.51953 Z"
       transform="scale(0.26458333)"
       id="path45"
       inkscape:connector-curvature="0" />
  </g>
</svg>
